<?xml version="1.0" standalone="no"?>
<!DOCTYPE svg PUBLIC "-//W3C//DTD SVG 20010904//EN"
 "http://www.w3.org/TR/2001/REC-SVG-20010904/DTD/svg10.dtd">
<svg version="1.0" xmlns="http://www.w3.org/2000/svg"
 width="585.000000pt" height="585.000000pt" viewBox="0 0 585.000000 585.000000"
 preserveAspectRatio="xMidYMid meet">
<metadata>
Created by potrace 1.11, written by Peter Selinger 2001-2013
</metadata>
<g transform="translate(0.000000,585.000000) scale(0.100000,-0.100000)"
fill="#000000" stroke="none">
<path d="M5109 5248 c-1 -7 -1 -16 0 -20 0 -5 -6 -8 -15 -8 -8 0 -13 4 -10 8
3 5 -1 9 -9 9 -8 0 -12 -4 -9 -9 3 -4 0 -8 -5 -8 -6 0 -11 6 -11 13 0 8 -3 7
-10 -3 -5 -8 -12 -11 -16 -8 -4 4 -16 3 -27 -3 -13 -7 -17 -7 -13 -1 3 6 1 14
-5 18 -8 5 -9 3 -4 -6 6 -10 4 -12 -8 -7 -10 3 -17 3 -17 -2 0 -5 -13 -7 -30
-6 -16 1 -27 -1 -24 -6 3 -5 9 -7 14 -4 5 3 11 2 14 -3 3 -5 0 -9 -7 -9 -7 0
-21 -4 -32 -8 -16 -5 -17 -5 -5 4 9 7 10 11 3 11 -6 0 -15 -5 -19 -11 -4 -8
-9 -7 -15 2 -7 12 -9 12 -9 0 0 -8 -7 -11 -20 -8 -16 4 -18 2 -10 -13 8 -15 6
-18 -8 -15 -9 1 -16 8 -14 14 1 7 -9 4 -22 -6 -14 -10 -26 -22 -26 -27 0 -5
10 -1 23 10 l22 18 -23 -24 c-19 -21 -24 -23 -32 -10 -8 12 -11 11 -17 -9 -6
-23 -7 -23 -20 -5 -13 18 -14 17 -9 -8 4 -22 1 -26 -15 -23 -12 2 -19 -2 -19
-11 0 -8 -5 -14 -11 -14 -5 0 -7 6 -3 13 4 6 -5 1 -20 -13 -14 -13 -24 -30
-21 -38 2 -7 0 -10 -5 -7 -6 3 -10 -1 -10 -9 0 -10 -6 -13 -15 -10 -8 4 -15 2
-15 -4 0 -6 6 -13 13 -15 7 -3 4 -6 -6 -6 -10 -1 -16 -5 -13 -10 3 -4 -1 -17
-10 -27 -14 -18 -15 -18 -9 6 5 22 4 23 -5 7 -9 -13 -9 -22 0 -32 8 -10 8 -15
-1 -21 -8 -5 -9 -3 -4 6 5 9 4 11 -4 6 -6 -4 -8 -13 -4 -19 4 -7 8 -19 10 -27
1 -10 -3 -9 -13 4 -17 24 -19 14 -3 -17 9 -18 9 -20 -2 -9 -19 18 -33 15 -14
-4 14 -15 14 -17 -2 -31 -13 -11 -14 -13 -3 -10 16 5 20 -28 7 -50 -4 -7 -3
-14 2 -18 6 -3 8 -12 5 -20 -4 -8 -10 -12 -15 -9 -5 3 -6 -2 -3 -10 3 -9 11
-13 18 -9 6 3 8 3 4 -2 -4 -4 0 -21 8 -37 9 -17 11 -27 5 -24 -6 4 -11 0 -11
-9 0 -9 4 -14 8 -11 5 3 8 -12 7 -33 -1 -25 3 -38 11 -38 11 0 11 3 1 16 -11
14 -10 14 5 2 14 -11 15 -17 6 -35 -11 -20 -10 -20 7 -6 11 9 16 10 11 3 -4
-7 -2 -13 3 -13 6 0 11 -5 11 -11 0 -5 -4 -8 -9 -4 -5 3 -13 1 -16 -5 -4 -6
-3 -10 2 -9 24 4 43 -3 43 -16 0 -14 13 -20 34 -16 5 1 3 -6 -5 -15 -13 -16
-12 -17 9 -12 15 4 22 2 22 -9 0 -8 -5 -11 -12 -7 -7 4 -8 3 -4 -4 4 -6 14 -8
23 -5 12 5 14 3 8 -8 -7 -11 -5 -11 10 1 11 9 16 10 11 3 -4 -8 -2 -13 5 -13
6 0 20 -10 30 -22 11 -11 19 -16 19 -11 0 6 7 14 16 17 14 5 15 4 4 -9 -9 -11
-9 -15 -1 -15 7 0 9 -5 5 -12 -5 -9 -2 -9 9 1 12 9 17 10 17 2 0 -7 5 -9 10
-6 6 3 10 0 10 -7 0 -9 3 -9 10 2 8 13 10 12 10 -2 0 -10 7 -18 16 -18 9 0 12
-5 8 -12 -6 -10 -4 -10 7 0 15 14 33 16 24 3 -6 -10 27 -7 44 4 6 3 14 -3 20
-12 6 -10 11 -13 11 -6 0 7 7 10 17 6 11 -5 14 -3 8 6 -6 10 -3 11 12 2 11 -5
28 -10 39 -10 39 -1 53 -5 48 -13 -3 -4 -1 -8 4 -8 6 0 12 7 16 15 3 8 11 15
18 14 10 0 10 -2 1 -6 -7 -2 -13 -8 -13 -13 0 -13 26 -19 41 -8 11 8 10 9 -4
4 -10 -3 -15 -2 -12 3 10 17 46 8 40 -9 -3 -8 4 -4 15 10 12 15 18 18 14 8 -3
-10 -1 -18 5 -18 6 0 11 8 11 18 0 13 2 14 9 4 4 -8 12 -14 17 -14 5 0 8 -5 6
-11 -2 -6 4 -5 12 3 9 7 16 18 16 24 0 6 -5 4 -10 -4 -6 -9 -10 -10 -10 -3 0
15 17 26 24 15 3 -5 19 -9 36 -10 19 0 28 3 24 10 -5 7 -2 8 7 2 18 -11 39
-14 39 -5 0 4 -6 13 -12 21 -11 12 -10 12 4 1 9 -7 23 -9 30 -5 9 5 8 1 -2
-12 -13 -17 -13 -18 0 -7 8 6 19 11 23 11 5 0 12 4 15 8 4 4 1 4 -5 0 -7 -4
-13 -2 -13 3 0 6 9 11 21 11 11 0 17 4 14 10 -3 6 1 7 10 4 14 -6 14 -8 -2
-21 -16 -13 -15 -13 7 -1 14 7 32 11 40 9 10 -2 8 3 -5 13 -19 15 -19 16 8 6
19 -7 26 -7 22 0 -6 10 3 13 36 13 10 0 16 8 15 21 -1 15 4 20 18 18 10 -2 15
1 12 6 -4 6 3 8 16 4 21 -5 22 -4 8 13 -8 10 -10 16 -3 12 7 -4 18 2 27 15 9
12 16 18 16 12 0 -5 -6 -16 -12 -24 -11 -12 -10 -12 3 -2 10 8 19 8 27 2 9 -7
9 -7 2 2 -15 18 -12 38 5 32 8 -4 15 -2 15 4 0 6 -6 13 -12 15 -8 4 -6 6 5 7
9 2 21 3 26 4 5 0 13 5 18 10 4 5 3 6 -3 3 -14 -8 -27 20 -14 28 6 4 16 3 23
-2 6 -4 4 6 -7 21 -11 17 -13 25 -5 20 24 -15 42 -14 29 1 -8 9 -7 17 4 28 14
13 14 16 0 21 -8 3 -12 11 -9 16 5 8 12 7 23 -2 13 -12 14 -10 4 9 -15 27 -15
34 -1 30 6 -1 12 8 14 21 1 12 -3 22 -9 23 -6 0 -2 4 9 9 17 7 17 9 3 9 -10 1
-18 6 -18 12 0 5 4 8 9 5 5 -4 8 2 6 11 -1 10 3 25 9 33 10 13 9 13 -6 1 -10
-7 -15 -18 -11 -24 3 -6 1 -7 -5 -3 -8 5 -8 13 0 31 10 21 8 29 -11 49 -14 15
-19 26 -12 31 11 6 12 5 15 -17 0 -6 8 -13 16 -15 13 -4 13 -3 0 6 -8 6 -11
11 -6 11 5 0 2 8 -6 18 -9 9 -14 25 -13 35 2 9 -1 15 -6 11 -5 -3 -9 2 -9 11
0 9 4 13 10 10 6 -4 7 1 3 11 -6 16 -7 16 -18 0 -11 -15 -13 -15 -19 -1 -3 9
-2 13 4 10 6 -3 10 1 10 10 0 10 -5 13 -12 9 -8 -5 -9 0 -6 14 4 12 1 25 -4
29 -7 3 -8 1 -4 -5 4 -7 2 -12 -3 -12 -6 0 -11 3 -12 8 -2 24 -8 45 -15 50 -4
4 -5 0 -2 -9 4 -9 1 -16 -7 -16 -8 0 -11 7 -7 15 4 11 2 13 -9 7 -11 -7 -12
-6 -2 7 13 15 8 28 -11 28 -6 0 -4 -5 4 -10 9 -6 10 -10 3 -10 -6 0 -15 5 -18
10 -4 6 -10 8 -14 6 -4 -3 -8 1 -8 9 0 8 4 12 8 9 4 -2 10 0 13 5 3 5 -9 8
-28 7 -19 -1 -32 2 -30 5 2 4 1 15 -2 24 -6 13 -9 14 -16 3 -8 -10 -11 -10
-15 0 -2 6 -9 10 -14 6 -5 -3 -19 2 -31 10 -12 9 -18 16 -12 16 5 0 16 -6 24
-12 12 -11 12 -10 1 4 -9 13 -21 16 -39 11 -17 -4 -23 -2 -18 6 4 6 3 11 -3
11 -5 0 -12 -4 -16 -9 -3 -6 -15 -8 -27 -6 -24 5 -37 15 -20 15 7 0 12 5 12
11 0 5 -4 7 -10 4 -5 -3 -10 -2 -10 2 0 5 -18 8 -40 7 -24 -1 -40 3 -41 10 0
6 -4 2 -9 -9 l-9 -20 0 20 c-1 17 -3 17 -11 5 -9 -13 -10 -13 -10 0 0 13 -1
13 -10 0 -6 -10 -10 -11 -10 -2 0 6 -5 12 -11 12 -5 0 -8 -4 -4 -9 3 -5 1 -13
-5 -16 -6 -4 -9 -1 -8 6 2 6 -7 12 -19 14 -12 1 -20 -2 -17 -6 2 -4 -4 -6 -13
-4 -10 2 -22 4 -26 4 -5 1 -5 6 -1 13 5 7 3 8 -5 4 -7 -5 -10 -15 -6 -23 4
-12 2 -13 -7 -5 -7 6 -16 11 -20 11 -5 1 -7 4 -5 9 1 4 6 6 10 4 5 -1 6 2 2 8
-9 14 -25 13 -26 -2z m286 -46 c-3 -3 -11 0 -18 7 -9 10 -8 11 6 5 10 -3 15
-9 12 -12z m-761 -150 c3 -5 -1 -9 -9 -9 -8 0 -12 4 -9 9 3 4 7 8 9 8 2 0 6
-4 9 -8z m1181 -382 c3 -6 -1 -7 -9 -4 -18 7 -21 14 -7 14 6 0 13 -4 16 -10z
m-935 -374 c-10 -13 -40 -12 -40 1 0 3 7 3 15 0 8 -4 17 -2 20 3 4 6 9 10 12
10 3 0 0 -6 -7 -14z"/>
<path d="M5436 5202 c-3 -5 1 -9 9 -9 8 0 12 4 9 9 -3 4 -7 8 -9 8 -2 0 -6 -4
-9 -8z"/>
<path d="M3747 5172 c4 -18 1 -19 -36 -12 -26 5 -38 4 -34 -3 3 -5 0 -7 -8 -5
-8 3 -22 1 -33 -4 -13 -7 -16 -7 -12 1 4 6 3 11 -3 11 -5 0 -13 -5 -17 -11 -4
-8 -9 -7 -15 2 -7 11 -9 11 -9 -1 0 -13 -2 -13 -10 0 -7 12 -12 11 -30 -5 -15
-14 -19 -15 -15 -4 6 17 -14 18 -47 5 -9 -4 -22 -4 -29 0 -7 4 -9 3 -5 -4 3
-6 2 -13 -3 -16 -5 -4 -13 4 -17 16 -7 22 -8 22 -20 -7 -8 -18 -13 -23 -14
-12 0 9 -5 17 -11 17 -5 0 -8 -4 -5 -9 8 -13 -41 -20 -53 -8 -7 7 -11 7 -11 1
0 -5 -9 -10 -20 -10 -11 0 -20 4 -20 9 0 4 -5 5 -10 2 -6 -4 -8 -11 -5 -16 3
-5 -1 -6 -9 -3 -9 3 -13 11 -10 18 3 6 -2 2 -10 -8 -12 -15 -16 -16 -16 -5 0
12 -2 12 -10 -1 -5 -8 -10 -10 -10 -4 0 12 -74 13 -86 1 -4 -3 3 -4 16 -2 18
3 20 2 10 -11 -9 -10 -16 -11 -25 -4 -17 14 -75 20 -72 6 3 -13 -52 -16 -78
-3 -17 9 -18 8 -7 -5 11 -14 9 -15 -23 -8 -24 5 -35 4 -35 -4 0 -6 -5 -4 -10
4 -5 8 -10 10 -10 3 0 -6 -8 -9 -19 -6 -10 3 -28 0 -40 -6 -12 -7 -21 -8 -21
-2 0 5 -8 8 -17 6 -10 -1 -26 2 -37 7 -13 7 -16 7 -12 -1 4 -6 2 -11 -4 -11
-6 0 -8 -5 -4 -12 4 -6 3 -8 -4 -4 -5 3 -12 3 -15 -1 -2 -5 -2 -3 -1 4 2 6 -5
17 -14 25 -15 12 -16 11 -3 -4 9 -13 10 -18 2 -18 -7 0 -10 -4 -7 -8 3 -5 -1
-9 -9 -9 -8 0 -12 4 -9 9 3 4 0 8 -5 8 -6 0 -11 -6 -11 -12 0 -9 -3 -9 -8 -3
-9 13 -27 13 -39 1 -4 -5 -3 -6 4 -2 6 3 14 2 17 -3 3 -5 -1 -11 -9 -15 -8 -3
-14 -13 -13 -23 3 -38 -2 -54 -14 -47 -7 4 -10 4 -6 -1 4 -4 2 -15 -5 -23 -9
-13 -9 -14 1 -8 15 9 15 5 2 -29 -7 -17 -7 -24 0 -20 6 3 10 1 10 -4 0 -6 -5
-11 -10 -11 -7 0 -6 -8 1 -22 11 -21 11 -22 -5 -9 -15 12 -17 12 -14 0 2 -8
-3 -13 -10 -11 -10 2 -10 -2 0 -18 7 -11 17 -20 23 -21 5 0 1 -4 -9 -8 -11 -4
-21 -17 -23 -30 -2 -15 1 -20 9 -15 7 5 8 3 2 -7 -5 -8 -7 -22 -6 -31 2 -10
-2 -18 -8 -18 -6 0 -8 5 -4 12 5 7 3 8 -6 3 -10 -6 -10 -10 2 -19 15 -11 21
-49 6 -40 -5 3 -5 11 -2 17 5 9 3 9 -6 0 -11 -10 -11 -15 1 -29 12 -16 12 -17
-4 -11 -10 4 -16 3 -12 -2 3 -5 2 -11 -2 -14 -5 -2 -3 -2 4 -1 7 2 15 -2 19
-8 4 -7 3 -8 -4 -4 -7 4 -12 2 -12 -4 0 -6 -5 -8 -12 -4 -10 6 -10 4 0 -8 10
-12 10 -18 1 -23 -8 -6 -7 -10 2 -16 11 -7 10 -9 -4 -9 -17 0 -17 -1 -3 -16
17 -16 21 -29 8 -20 -4 2 -14 1 -22 -5 -12 -7 -11 -9 4 -9 16 0 15 -3 -8 -21
-20 -15 -24 -25 -17 -32 16 -16 14 -60 -1 -51 -10 5 -10 4 -1 -6 9 -9 9 -19 2
-33 -6 -11 -7 -17 -2 -14 5 3 9 -5 9 -18 0 -16 -4 -21 -14 -17 -12 4 -12 1 -3
-16 10 -18 9 -22 -4 -22 -9 0 -14 -4 -10 -10 3 -5 13 -7 23 -4 15 5 15 5 -1
-6 -9 -6 -21 -9 -25 -6 -11 6 -9 -25 3 -43 5 -10 4 -12 -3 -7 -15 9 -15 1 -1
-26 6 -12 7 -18 1 -14 -5 3 -12 -1 -16 -9 -3 -8 -1 -17 4 -20 15 -9 12 -19
-10 -43 -20 -21 -14 -32 6 -12 7 7 11 6 11 -4 0 -8 -5 -12 -10 -9 -7 4 -8 -1
-3 -12 6 -16 4 -16 -11 -4 -17 13 -17 13 0 -13 16 -26 16 -27 -3 -23 -11 2
-22 0 -25 -6 -9 -14 -25 -11 -25 4 0 8 -7 14 -15 14 -11 0 -12 -4 -4 -13 8 -9
5 -11 -10 -7 -12 3 -19 9 -16 13 8 12 -14 16 -87 15 -37 -1 -65 2 -63 5 2 4
-2 7 -10 7 -8 0 -13 -3 -11 -6 2 -3 -11 -6 -30 -6 -36 -1 -41 4 -24 21 7 7 6
11 -4 11 -8 0 -13 -4 -10 -9 3 -4 -7 -13 -21 -18 -33 -12 -35 -12 -35 0 0 6 3
9 8 9 19 -3 32 2 32 12 0 8 -5 8 -15 -1 -12 -10 -15 -10 -15 1 0 9 -3 10 -8 4
-15 -21 -88 -27 -84 -7 1 8 -2 11 -7 7 -6 -3 -8 -13 -5 -23 5 -14 4 -15 -5 -2
-9 13 -12 12 -26 -5 -9 -11 -13 -14 -9 -6 4 9 2 12 -7 9 -8 -3 -22 -1 -33 4
-13 7 -16 7 -12 -1 4 -6 2 -11 -3 -11 -6 0 -11 5 -11 11 0 8 -4 8 -13 0 -10
-8 -17 -7 -27 2 -10 10 -11 9 -5 -2 7 -11 2 -13 -24 -8 -24 5 -30 4 -25 -6 5
-8 2 -7 -9 2 -12 9 -17 10 -17 2 0 -7 -5 -9 -12 -5 -7 4 -22 8 -34 9 -19 0
-21 -2 -11 -14 9 -11 9 -13 0 -8 -6 4 -14 3 -18 -3 -3 -5 -12 -10 -18 -10 -7
0 -6 4 3 10 12 7 12 11 2 20 -6 5 -10 7 -8 4 3 -3 -1 -12 -7 -19 -9 -9 -17
-10 -31 -3 -14 8 -17 7 -11 -3 6 -9 3 -11 -8 -6 -9 3 -19 2 -22 -3 -4 -6 -11
-10 -16 -10 -6 0 -8 4 -5 8 2 4 -4 8 -14 8 -15 0 -17 -3 -7 -15 9 -12 9 -13 0
-7 -8 4 -13 2 -13 -6 0 -8 -5 -6 -11 5 -11 18 -29 14 -29 -6 0 -7 4 -6 10 3 5
8 10 11 10 5 0 -5 -4 -16 -9 -23 -6 -11 -10 -10 -15 4 -6 16 -8 16 -16 4 -6
-8 -10 -11 -10 -6 0 5 -6 3 -14 -3 -10 -8 -16 -9 -21 -1 -8 13 -25 13 -25 -1
0 -5 5 -7 12 -3 7 4 8 3 4 -4 -5 -9 -13 -9 -27 -2 -22 13 -25 7 -5 -12 12 -12
7 -14 -31 -12 -33 2 -43 -1 -40 -10 3 -7 -1 -13 -8 -13 -7 0 -11 7 -8 16 3 9
-5 5 -17 -9 -12 -14 -19 -18 -15 -10 6 13 5 13 -7 0 -7 -9 -23 -15 -36 -14
-15 1 -21 -3 -18 -11 5 -15 -30 -32 -62 -29 -17 1 -20 -2 -12 -12 9 -10 6 -11
-11 -7 -15 4 -20 2 -15 -5 3 -6 2 -13 -3 -16 -5 -4 -13 -1 -17 5 -5 8 -3 9 6
4 9 -5 11 -4 6 4 -4 6 -12 9 -17 5 -5 -3 -6 -10 -3 -16 5 -8 1 -9 -11 -4 -16
6 -16 4 -4 -11 8 -9 9 -14 2 -10 -6 4 -14 3 -18 -3 -3 -5 -12 -10 -18 -10 -7
0 -6 4 3 10 8 5 10 10 4 10 -6 0 -19 -9 -29 -20 -18 -20 -18 -21 1 -14 15 5
16 4 4 -5 -9 -6 -18 -7 -24 -1 -6 6 -15 10 -20 10 -6 0 -4 -5 4 -10 13 -8 12
-10 -2 -10 -10 0 -18 -5 -18 -11 0 -5 -5 -7 -10 -4 -6 3 -14 -5 -20 -19 -6
-17 -14 -24 -25 -20 -8 3 -15 1 -15 -6 0 -6 -5 -8 -12 -4 -7 4 -8 3 -4 -5 5
-7 -4 -15 -23 -22 -17 -6 -31 -15 -31 -21 0 -5 4 -7 9 -3 5 3 13 1 16 -5 4 -6
3 -10 -2 -9 -27 5 -53 -2 -47 -13 5 -8 2 -9 -9 -5 -18 7 -33 -8 -17 -18 5 -3
10 -12 10 -18 0 -7 -4 -6 -10 3 -8 13 -12 12 -27 -4 -17 -19 -17 -19 2 -5 19
13 19 13 6 -4 -8 -10 -22 -16 -32 -14 -12 3 -16 0 -12 -9 3 -8 10 -11 16 -7 6
3 7 1 3 -5 -3 -6 -16 -9 -27 -7 -16 3 -19 0 -15 -12 5 -13 4 -14 -9 -3 -13 11
-14 10 -9 -5 5 -13 4 -16 -5 -11 -7 5 -10 2 -9 -6 2 -7 -5 -12 -14 -12 -10 1
-14 -4 -11 -12 3 -8 2 -21 -1 -30 -5 -13 -9 -14 -21 -4 -13 11 -14 10 -10 -3
4 -8 1 -18 -6 -23 -8 -5 -10 -3 -4 7 6 10 5 11 -3 4 -6 -6 -13 -21 -15 -33 -2
-12 -9 -28 -17 -35 -10 -10 -11 -9 -5 1 6 11 3 12 -14 3 -11 -7 -21 -14 -21
-17 0 -3 5 -2 10 1 12 7 9 -39 -3 -51 -3 -4 -5 3 -2 14 3 15 0 19 -11 15 -8
-3 -12 -8 -10 -11 3 -3 -2 -11 -12 -18 -10 -8 -12 -13 -4 -14 6 0 12 -5 12
-11 0 -6 -7 -8 -16 -5 -12 5 -15 2 -12 -12 3 -10 -1 -27 -10 -38 -13 -17 -14
-17 -8 -1 3 11 2 16 -4 12 -6 -3 -10 -13 -10 -21 0 -9 -5 -12 -11 -8 -8 4 -8
0 0 -15 11 -20 8 -25 -13 -22 -5 1 -6 -5 -3 -13 4 -9 -5 -23 -21 -36 -15 -11
-20 -19 -12 -17 8 2 12 2 7 0 -4 -3 -4 -9 -1 -15 4 -6 -2 -5 -15 1 -17 9 -20
9 -15 -3 3 -9 -4 -29 -16 -46 -12 -16 -18 -30 -14 -30 3 0 1 -6 -5 -14 -9 -11
-10 -20 -1 -35 9 -17 8 -20 -5 -15 -10 4 -15 0 -15 -11 0 -10 -4 -13 -12 -9
-8 5 -7 0 2 -11 9 -11 10 -16 3 -11 -9 5 -13 -1 -13 -18 0 -14 -4 -26 -10 -26
-5 0 -10 -5 -10 -11 0 -5 5 -7 12 -3 7 4 8 3 4 -4 -4 -7 -15 -12 -24 -12 -10
0 -13 -3 -7 -8 13 -9 13 -27 1 -39 -5 -5 -6 -2 -1 6 6 10 4 12 -5 6 -10 -6 -9
-11 5 -22 11 -7 13 -13 6 -13 -7 0 -9 -5 -5 -12 5 -9 2 -8 -9 1 -15 12 -17 12
-11 -4 5 -13 4 -16 -5 -10 -10 6 -11 3 -2 -14 9 -16 9 -21 0 -21 -8 0 -8 -4 1
-15 10 -12 9 -16 -5 -21 -12 -5 -13 -9 -5 -14 9 -6 9 -13 1 -29 -9 -16 -9 -21
1 -21 7 -1 2 -7 -11 -14 -17 -10 -20 -15 -10 -18 12 -5 12 -7 0 -19 -12 -12
-13 -12 -6 0 5 9 4 12 -3 7 -7 -4 -8 -17 -2 -37 8 -26 7 -30 -7 -25 -13 6 -14
4 -3 -10 12 -13 11 -17 -1 -25 -12 -7 -12 -9 1 -9 9 -1 6 -6 -9 -14 -14 -8
-19 -16 -13 -20 6 -3 12 0 15 6 2 7 8 9 13 5 5 -5 1 -15 -10 -23 -20 -14 -20
-14 0 -15 17 0 17 -1 -2 -9 -18 -7 -21 -15 -18 -44 1 -20 6 -41 10 -48 5 -7 3
-8 -6 -3 -8 5 -11 3 -8 -6 3 -8 1 -22 -4 -31 -7 -14 -5 -16 9 -11 16 6 16 5 4
-10 -7 -9 -10 -17 -6 -17 4 0 1 -8 -6 -17 -10 -11 -10 -14 -1 -9 7 4 12 1 12
-9 0 -9 -5 -13 -11 -10 -6 4 -5 -2 2 -13 10 -16 10 -23 0 -36 -10 -11 -10 -20
-1 -37 11 -20 10 -21 -6 -15 -16 5 -16 3 2 -12 l22 -19 -21 -13 c-18 -11 -19
-14 -6 -24 8 -6 14 -27 14 -46 -1 -19 4 -38 10 -42 7 -5 6 -8 -1 -8 -8 0 -11
-20 -10 -57 2 -40 6 -57 15 -55 7 1 10 -2 6 -8 -3 -6 -11 -8 -16 -5 -5 4 -9 1
-9 -4 0 -6 5 -11 11 -11 5 0 7 -4 4 -10 -11 -18 -14 -51 -4 -45 5 4 9 2 9 -4
0 -5 -5 -13 -10 -16 -11 -7 5 -45 24 -57 7 -5 6 -8 -4 -8 -11 0 -12 -3 -3 -8
15 -10 23 -64 11 -79 -6 -7 -5 -14 3 -19 8 -5 9 -3 4 6 -5 9 -4 11 4 6 8 -5 9
-12 2 -19 -8 -11 11 -42 21 -32 2 2 4 -5 4 -16 0 -19 -1 -19 -17 2 -12 16 -18
19 -24 9 -5 -8 -4 -11 2 -7 13 8 36 -41 27 -55 -4 -6 -2 -8 3 -5 6 4 14 0 17
-9 3 -8 2 -12 -4 -9 -6 3 -10 2 -10 -4 0 -5 4 -12 10 -16 5 -3 6 -13 3 -22 -5
-12 -3 -14 7 -8 10 6 12 4 7 -8 -4 -12 -2 -14 11 -10 15 6 15 5 3 -10 -7 -9
-9 -17 -3 -17 5 0 9 -13 8 -30 -2 -25 0 -27 13 -17 12 9 13 9 7 -1 -4 -7 -2
-12 5 -12 8 0 7 -5 -2 -17 -8 -9 -9 -14 -3 -10 7 4 15 0 18 -9 3 -8 2 -13 -2
-10 -5 3 -9 -1 -9 -8 0 -8 7 -12 15 -9 11 5 13 1 7 -18 -5 -18 -4 -21 4 -9 9
13 11 12 12 -5 1 -11 1 -24 0 -30 -1 -5 6 -1 15 10 16 20 16 20 9 -2 -5 -18
-2 -23 12 -24 11 0 13 -3 5 -6 -9 -3 -5 -12 13 -28 14 -13 25 -31 25 -40 0
-10 5 -13 12 -9 7 5 8 3 3 -6 -6 -10 -4 -12 10 -6 15 5 16 4 5 -9 -10 -13 -9
-15 9 -15 12 0 19 -4 16 -10 -3 -5 1 -10 9 -10 9 0 16 -8 16 -17 0 -15 2 -16
10 -3 9 13 10 13 11 0 1 -8 1 -18 0 -22 -2 -12 14 -9 28 4 7 7 12 9 11 3 -5
-23 1 -45 11 -45 5 0 7 5 3 11 -4 8 0 8 15 0 11 -7 21 -14 21 -17 0 -3 -4 -3
-9 1 -5 3 -12 1 -15 -4 -3 -5 8 -8 24 -7 19 1 30 -3 30 -11 0 -7 7 -13 16 -13
11 0 14 -6 10 -17 -6 -17 -5 -17 7 -1 12 15 14 15 25 -3 11 -17 16 -18 35 -8
20 11 21 11 8 -5 -12 -14 -12 -16 3 -10 10 4 16 1 16 -7 0 -11 3 -11 10 1 9
13 10 13 10 0 0 -13 1 -13 10 0 7 11 10 11 10 2 0 -7 5 -10 11 -6 7 4 7 -1 -1
-16 -11 -21 -11 -21 16 -3 27 17 28 17 21 0 -5 -14 -3 -16 11 -8 11 6 24 6 32
1 9 -5 20 -5 27 2 11 8 12 7 6 -8 -6 -17 -5 -18 12 -4 10 8 16 10 13 5 -4 -6
2 -17 14 -24 11 -7 17 -8 13 -2 -3 6 1 11 10 11 10 0 13 -5 9 -12 -4 -6 -3 -8
4 -4 5 3 13 0 16 -6 3 -7 3 -3 1 9 -3 12 -1 24 4 28 6 3 8 0 5 -8 -3 -8 3 -20
12 -28 12 -9 15 -10 10 -2 -4 7 -2 13 3 13 6 0 11 -4 11 -10 0 -5 5 -10 11
-10 5 0 7 5 3 11 -5 8 -1 8 13 0 11 -6 23 -8 26 -4 4 3 13 0 22 -7 13 -11 14
-10 9 5 -6 14 -4 16 7 9 8 -4 24 -7 37 -5 13 1 22 -3 22 -11 0 -10 3 -9 10 2
9 13 10 13 11 0 0 -10 3 -8 9 5 7 17 9 17 9 3 1 -10 4 -18 9 -19 50 -6 90 -4
85 5 -4 6 1 5 10 -2 9 -8 21 -11 28 -7 6 4 15 2 19 -5 5 -9 9 -8 13 3 4 11 -1
14 -19 12 -13 -1 -26 1 -29 5 -2 4 10 7 28 6 18 -1 32 -7 32 -13 0 -6 4 -15 8
-20 5 -4 7 -2 5 5 -2 8 8 21 22 30 24 16 24 16 11 -1 -11 -14 -12 -20 -2 -30
10 -9 11 -8 6 6 -5 12 -2 17 10 17 9 0 13 4 10 10 -3 6 1 7 9 4 9 -3 14 -9 11
-13 -2 -4 2 -8 10 -8 8 0 12 4 10 8 -6 9 21 20 29 11 13 -13 38 -10 32 3 -3 9
0 12 9 8 8 -3 13 -9 10 -13 -3 -5 4 -6 15 -3 11 3 20 10 20 15 0 5 -4 7 -9 3
-5 -3 -13 0 -17 6 -4 8 -3 9 4 5 7 -4 12 -1 12 6 0 8 5 6 11 -5 9 -14 13 -15
32 -5 22 13 47 19 80 19 16 0 17 2 5 16 -12 15 -11 15 12 3 24 -13 24 -12 10
5 -10 12 -10 16 -2 11 7 -4 20 -2 28 5 12 10 13 9 8 -7 -5 -14 0 -12 19 8 15
16 32 25 40 22 19 -7 32 12 16 22 -8 5 -9 3 -4 -6 6 -9 4 -11 -4 -6 -18 12 -4
21 32 22 32 0 44 20 22 37 -5 4 4 5 22 2 19 -3 35 0 39 7 5 7 3 8 -7 3 -11 -7
-12 -6 -2 7 7 8 10 18 6 22 -4 4 1 4 11 0 15 -6 17 -4 11 6 -6 10 -4 12 10 6
15 -5 16 -4 5 9 -11 13 -10 15 2 10 8 -3 23 4 34 17 l19 23 -24 -20 -24 -20
12 23 c9 16 19 22 32 19 22 -6 35 8 18 19 -8 4 -9 3 -5 -4 5 -8 2 -10 -9 -6
-22 9 -12 16 24 19 27 2 29 0 20 -16 -7 -14 -6 -19 4 -19 8 0 17 -9 20 -21 5
-18 3 -18 -11 -7 -15 11 -14 10 1 -8 9 -11 14 -24 10 -28 -5 -4 -3 -7 2 -6 23
5 33 -2 39 -26 6 -22 9 -24 23 -12 15 12 15 11 5 -8 -10 -19 -9 -23 9 -27 17
-5 18 -3 7 10 -12 15 -11 15 10 2 20 -12 20 -15 7 -25 -14 -11 -14 -12 0 -18
9 -3 13 -2 10 4 -3 6 1 10 10 10 9 0 14 -4 11 -9 -3 -5 1 -11 9 -15 8 -3 15 0
15 6 0 6 3 8 6 5 4 -4 1 -13 -5 -21 -9 -11 -9 -16 0 -22 8 -4 9 -3 5 4 -5 8 0
12 13 12 12 0 21 -5 21 -11 0 -5 8 -9 18 -7 23 4 72 -21 72 -36 0 -6 5 -4 10
4 6 10 10 11 10 3 0 -7 6 -13 14 -13 8 0 16 -5 18 -10 2 -6 13 -12 26 -15 16
-3 20 0 15 8 -4 7 5 4 20 -6 25 -16 26 -16 20 0 -6 16 -3 15 17 -2 13 -11 20
-15 17 -9 -4 7 0 14 8 18 8 3 14 2 14 -2 -3 -20 3 -23 18 -11 11 10 14 10 9 2
-7 -13 -4 -14 32 -16 9 -1 23 -8 30 -17 10 -13 11 -12 5 4 -5 14 -3 17 7 11 8
-5 11 -4 6 3 -3 6 -16 9 -28 7 -11 -3 -18 -1 -14 3 4 3 20 7 37 7 22 1 28 -3
24 -14 -4 -11 -3 -12 10 -1 8 7 13 16 10 20 -3 5 2 7 11 6 8 -1 20 -9 25 -17
6 -10 9 -10 9 -1 0 6 5 12 11 12 5 0 7 -6 3 -12 -5 -8 0 -7 11 2 17 14 18 13
12 -3 -4 -11 -3 -16 3 -12 6 3 10 13 10 21 0 10 5 12 13 7 18 -11 38 -13 31
-2 -7 12 3 11 28 -2 13 -7 18 -7 14 -1 -8 14 22 31 44 25 10 -3 31 3 46 12 16
9 21 14 12 11 -28 -8 -21 1 13 18 24 12 36 13 53 4 20 -10 20 -10 6 7 -14 17
-14 18 9 6 15 -8 21 -9 17 -2 -4 6 -2 11 4 11 6 0 8 5 4 13 -5 7 0 6 11 -3 10
-8 16 -10 13 -5 -4 6 1 19 9 30 15 20 16 20 9 0 -4 -11 -4 -16 0 -12 4 4 14 1
23 -5 13 -10 14 -10 4 2 -18 20 -16 30 7 30 22 0 27 15 8 24 -7 3 -2 3 11 0
15 -4 21 -2 17 4 -4 7 1 9 13 7 14 -3 18 1 14 11 -3 9 0 14 8 12 8 -2 13 5 13
15 -2 13 1 15 10 8 9 -8 19 -2 36 21 12 17 17 27 10 23 -9 -6 -11 -4 -6 4 5 7
15 10 23 7 8 -3 11 -2 8 3 -3 5 0 13 6 16 5 4 8 14 5 22 -5 11 -2 13 10 9 12
-5 15 -2 10 10 -6 15 -4 15 11 3 15 -13 15 -12 6 6 -9 15 -8 22 5 33 10 7 12
11 5 8 -6 -4 -14 -3 -17 2 -8 13 28 11 36 -2 6 -8 8 -8 8 1 0 6 -6 18 -14 25
-10 10 -11 20 -4 34 6 13 2 11 -13 -6 l-22 -25 8 24 c5 15 4 21 -3 17 -6 -3
-13 -2 -17 4 -4 7 -12 7 -26 0 -16 -9 -21 -7 -31 15 -6 14 -15 25 -20 25 -5 0
-6 -5 -2 -12 4 -7 3 -8 -5 -4 -6 4 -8 13 -4 19 12 19 12 37 1 37 -6 0 -8 -7
-5 -14 4 -10 1 -13 -8 -9 -8 3 -12 9 -9 14 3 5 1 9 -5 9 -5 0 -8 9 -6 21 3 15
0 19 -10 15 -8 -3 -17 0 -21 6 -4 7 -3 8 4 4 7 -4 12 -2 12 3 0 6 -5 11 -11
11 -6 0 -9 9 -6 20 3 11 -1 26 -8 34 -8 7 -11 17 -7 21 10 10 10 55 0 48 -5
-2 -6 -14 -4 -26 3 -12 0 -9 -8 8 -9 20 -11 36 -5 47 5 10 6 18 1 18 -4 0 -8
9 -8 19 0 11 4 17 8 15 4 -3 8 -1 8 5 0 5 -6 12 -12 14 -10 4 -10 6 0 6 6 1
12 6 12 12 0 5 -4 8 -8 5 -4 -2 -9 5 -9 17 -2 17 0 19 7 7 7 -11 9 -8 8 13 -1
15 -5 27 -9 27 -3 0 -5 10 -3 22 1 13 3 26 3 31 1 4 6 7 12 7 8 0 7 -6 -2 -17
-12 -16 -12 -17 1 -6 19 15 25 63 7 63 -8 0 -7 4 3 10 13 8 12 11 -5 25 -16
12 -17 14 -2 9 9 -3 17 -2 18 2 0 5 2 25 3 44 1 23 6 34 14 32 8 -1 11 2 7 8
-3 6 -11 8 -16 5 -5 -4 -9 -1 -9 4 0 6 6 11 14 11 8 0 17 4 21 9 3 6 -4 8 -17
6 -23 -4 -23 -4 2 14 20 16 22 22 12 34 -9 11 -10 17 -2 22 12 7 9 42 -4 65
-6 9 0 6 14 -5 l23 -20 -12 23 c-6 12 -8 22 -4 22 4 0 1 5 -7 10 -9 6 -11 10
-3 10 7 0 10 7 7 18 -3 9 2 6 11 -8 9 -14 14 -18 11 -9 -2 9 0 21 6 27 6 6 5
17 -4 31 -11 18 -11 23 2 32 12 8 12 12 2 16 -10 4 -10 8 -1 19 6 8 8 14 3 14
-5 0 -3 4 5 9 8 5 16 17 17 25 1 9 -2 14 -7 11 -5 -4 -6 1 -3 9 3 9 9 14 14
11 4 -2 5 11 3 30 -2 24 1 35 9 35 8 0 9 3 3 8 -12 9 -16 64 -4 56 12 -7 11 3
0 25 -7 13 -6 18 4 18 8 0 11 -5 8 -11 -3 -6 0 -5 7 1 12 11 11 15 -6 28 -14
11 -15 14 -3 9 10 -3 20 0 25 7 4 7 3 10 -3 6 -6 -4 -13 0 -17 8 -3 8 0 17 6
21 7 4 8 3 4 -4 -4 -7 -3 -12 2 -12 5 0 8 15 7 33 -2 17 2 38 9 46 8 12 8 13
-1 7 -7 -4 -13 -2 -13 3 0 6 8 11 18 12 10 0 12 3 5 6 -7 2 -13 9 -13 14 0 4
8 5 17 2 15 -6 16 -5 3 9 -8 9 -19 13 -24 10 -5 -3 -6 0 -2 7 6 9 11 9 24 -1
14 -12 14 -10 2 11 -10 20 -10 23 1 19 9 -4 14 2 14 17 0 19 -3 21 -14 12 -12
-10 -12 -9 -2 11 6 12 9 28 5 34 -5 7 -2 9 9 5 11 -4 14 -2 10 8 -3 8 -10 12
-16 8 -6 -4 -7 -1 -3 6 5 7 15 10 25 6 12 -5 13 -3 4 6 -6 6 -9 18 -6 27 4 9
2 13 -4 9 -16 -10 -10 21 7 36 12 10 12 9 2 -4 -10 -13 -10 -18 0 -22 9 -3 13
5 13 24 1 16 -3 25 -10 21 -5 -3 -4 1 2 9 9 11 9 19 2 26 -8 8 -7 13 2 18 8 6
10 4 4 -5 -5 -9 -4 -11 4 -6 6 4 9 11 6 16 -3 4 -2 10 2 13 5 2 2 2 -4 1 -19
-5 -16 13 3 20 13 5 14 9 5 20 -9 11 -9 16 0 22 8 5 9 3 4 -6 -6 -9 -4 -11 4
-6 7 5 10 11 7 14 -3 3 -1 11 5 18 7 8 6 14 -2 20 -8 5 -9 3 -4 -6 6 -9 4 -11
-5 -5 -9 6 -11 4 -5 -5 5 -9 4 -11 -4 -6 -8 5 -6 15 9 33 16 21 18 28 8 35
-10 6 -10 8 2 8 13 0 13 1 0 10 -8 5 -10 10 -4 10 7 0 11 17 10 43 -1 29 3 44
11 44 9 0 9 -6 2 -21 -9 -19 -9 -19 4 -4 8 10 13 35 11 59 -1 30 4 51 18 70
20 27 18 51 -5 45 -7 -1 -9 -1 -4 1 4 3 7 9 7 14 0 6 -6 7 -12 3 -10 -5 -10
-3 0 7 11 12 14 12 22 -1 8 -13 10 -13 10 2 0 9 -7 21 -17 26 -14 9 -14 10 6
17 18 5 20 9 10 21 -8 10 -8 14 0 14 6 0 11 5 11 11 0 5 -4 8 -8 5 -10 -6 -8
36 2 52 4 7 2 21 -6 30 -12 15 -11 16 5 3 15 -12 20 -12 30 -1 9 10 9 11 0 6
-7 -4 -13 -2 -13 3 0 6 6 11 13 11 8 0 7 3 -3 10 -12 7 -12 12 4 28 13 15 14
22 5 28 -8 5 -10 3 -4 -6 6 -9 4 -11 -4 -6 -9 6 -9 12 2 24 18 21 16 60 -4 73
-20 13 -2 11 23 -2 12 -7 18 -7 14 -1 -3 6 -3 12 1 15 5 2 2 2 -4 1 -18 -5
-16 13 1 19 12 5 14 25 6 47 -1 3 -3 19 -4 37 -1 21 2 28 10 22 7 -6 9 1 6 21
-4 28 3 35 30 31 4 0 2 11 -4 25 -9 20 -9 30 1 46 7 11 8 17 2 13 -6 -3 -11 1
-11 10 0 10 5 14 13 9 9 -5 9 -4 0 6 -10 11 -9 16 5 27 9 8 12 12 5 9 -6 -4
-14 -2 -18 4 -6 10 5 13 35 11 10 0 11 1 3 5 -8 4 -11 15 -7 30 4 14 1 31 -7
41 -10 12 -10 15 -1 9 12 -7 13 -5 15 42 0 15 8 30 16 34 14 6 13 7 -1 7 -20
1 -24 16 -8 26 6 3 10 15 10 26 0 11 5 17 10 14 6 -3 10 -1 10 4 0 6 -5 11
-11 11 -8 0 -8 4 1 15 6 8 9 19 6 24 -4 5 -2 12 3 15 5 3 5 21 1 41 -7 32 -6
34 8 23 10 -9 13 -9 9 -1 -4 7 0 16 10 22 11 6 13 11 5 11 -7 0 -10 5 -6 12 4
7 3 8 -5 4 -6 -4 -9 -12 -6 -17 4 -5 1 -9 -4 -9 -15 0 -14 4 9 45 13 24 16 35
7 35 -8 0 -8 3 2 9 11 7 11 9 0 14 -12 5 -12 6 0 6 10 1 11 4 2 14 -8 10 -7
19 5 33 14 18 14 18 4 -6 -10 -23 -10 -24 4 -7 14 18 12 52 -3 42 -4 -2 -8 2
-8 9 0 8 8 11 19 8 13 -3 17 0 12 11 -3 8 -1 32 5 52 9 33 8 36 -7 31 -15 -5
-15 -5 -2 6 9 7 16 21 17 31 2 35 3 38 16 31 7 -5 6 0 -3 11 -13 17 -13 18 0
13 13 -5 16 4 14 53 -1 40 1 57 8 52 7 -3 8 -1 4 5 -4 7 -9 21 -11 31 -3 15 1
18 13 15 14 -5 13 -2 -2 10 -11 9 -14 16 -7 16 7 0 9 5 5 12 -4 7 -3 8 5 4 6
-4 8 -12 5 -18 -4 -7 -2 -8 4 -4 6 4 8 14 5 23 -4 11 -3 14 5 9 8 -5 10 -2 5
9 -5 13 -7 14 -14 3 -5 -7 -9 -8 -9 -2 0 5 5 15 12 22 7 7 11 28 10 48 -2 27
0 34 10 28 7 -4 10 -3 5 1 -4 5 1 17 10 28 18 20 18 20 -12 1 l-30 -18 18 20
c19 23 23 54 6 54 -5 0 -7 6 -3 13 6 10 4 10 -7 0 -16 -16 -33 -17 -23 -1 4 7
3 8 -5 4 -6 -4 -9 -11 -6 -16 3 -5 0 -12 -6 -16 -7 -4 -9 -3 -6 3 4 6 0 16 -7
22 -12 10 -13 9 -9 -7z m72 -25 c0 -8 -2 -8 -6 1 -4 10 -8 10 -21 0 -15 -12
-16 -11 -3 4 14 19 32 15 30 -5z m-315 -18 c-3 -5 -10 -7 -15 -3 -5 3 -7 10
-3 15 3 5 10 7 15 3 5 -3 7 -10 3 -15z m-333 -42 c-10 -9 -11 -8 -5 6 3 10 9
15 12 12 3 -3 0 -11 -7 -18z m-90 -4 c12 -16 12 -17 -2 -6 -9 7 -20 9 -24 5
-5 -4 -5 -1 -1 6 9 16 11 15 27 -5z m-331 -23 c0 -5 -2 -10 -4 -10 -3 0 -8 5
-11 10 -3 6 -1 10 4 10 6 0 11 -4 11 -10z m1016 -257 c-2 -9 -9 -19 -17 -21
-11 -3 -11 -1 1 7 8 6 11 11 7 11 -5 0 -5 5 -2 10 9 15 14 12 11 -7z m-1205
-60 c13 -16 12 -17 -3 -4 -10 7 -18 15 -18 17 0 8 8 3 21 -13z m-75 -327 c-1
-18 -4 -22 -14 -14 -9 8 -9 14 -1 24 16 19 17 18 15 -10z m1126 -401 c-8 -16
-9 -16 -15 -1 -4 10 -3 15 3 11 6 -3 10 -1 10 6 0 7 3 10 6 6 3 -3 2 -13 -4
-22z m-22 -167 c0 -19 -16 -5 -17 14 -2 18 0 20 7 8 5 -8 10 -18 10 -22z
m-1664 -227 c5 8 3 10 -6 4 -9 -5 -11 -4 -6 4 4 6 13 8 19 4 17 -10 40 -10 55
1 9 7 16 5 22 -4 7 -11 12 -11 23 -2 7 7 17 8 21 4 10 -9 50 -10 56 0 3 4 12
-3 19 -15 13 -19 12 -21 -1 -10 -12 10 -15 10 -15 0 0 -10 14 -13 43 -12 26 2
41 -2 38 -7 -4 -6 2 -7 15 -3 16 5 20 3 15 -8 -3 -8 0 -18 7 -23 8 -5 10 -3 4
6 -5 8 -3 11 6 8 8 -3 13 -10 12 -16 -1 -5 6 -8 16 -5 18 5 35 -11 36 -32 1
-5 7 -9 15 -7 10 1 7 -4 -6 -15 -17 -15 -23 -35 -14 -45 8 -11 6 -36 -3 -32
-7 2 -12 -6 -12 -20 0 -13 3 -22 7 -20 4 3 5 -2 2 -10 -3 -9 -11 -16 -18 -16
-6 0 -4 -5 4 -10 13 -9 13 -10 0 -10 -13 0 -13 -1 0 -10 8 -5 11 -10 6 -10 -5
0 -2 -8 5 -17 10 -14 8 -13 -11 2 l-24 20 18 -30 c11 -16 15 -27 11 -23 -5 5
-15 -2 -23 -13 -8 -12 -11 -24 -6 -28 5 -3 10 -12 12 -20 2 -11 0 -12 -11 -3
-11 9 -13 8 -12 -6 0 -9 4 -23 9 -30 4 -8 1 -12 -9 -12 -9 0 -13 -5 -10 -10 4
-6 10 -8 14 -6 4 3 8 -2 8 -11 0 -9 -9 -18 -19 -21 -10 -2 -18 -8 -18 -13 0
-5 8 -6 18 -3 14 5 14 3 -2 -10 -18 -15 -15 -21 9 -16 6 1 -1 -11 -15 -26 -17
-18 -21 -28 -13 -31 10 -4 9 -8 -2 -19 -11 -12 -12 -20 -5 -35 8 -13 7 -19 0
-19 -7 0 -7 -7 1 -22 11 -21 11 -22 -4 -10 -13 11 -15 10 -10 -7 3 -12 10 -18
17 -14 6 4 5 -1 -2 -10 -8 -9 -10 -22 -6 -28 5 -8 3 -9 -6 -4 -10 6 -12 4 -7
-8 4 -10 -1 -20 -11 -27 -14 -8 -15 -11 -3 -19 12 -7 12 -13 3 -24 -7 -7 -9
-17 -5 -20 3 -4 0 -7 -8 -8 -8 0 -6 -4 6 -9 17 -7 17 -9 3 -9 -10 -1 -17 -7
-15 -13 1 -7 -4 -12 -11 -10 -8 1 -11 -2 -7 -7 3 -6 11 -9 18 -7 7 1 9 1 4 -1
-4 -3 -5 -9 -2 -13 3 -5 -5 -16 -17 -24 -21 -15 -21 -16 -3 -17 11 0 14 -3 7
-6 -6 -2 -10 -9 -7 -14 3 -5 1 -17 -5 -28 -6 -12 -6 -22 -1 -26 13 -7 10 -42
-4 -41 -5 1 -10 -2 -10 -5 0 -3 -7 -14 -15 -24 -9 -11 -10 -16 -2 -11 7 4 12
2 12 -4 0 -6 5 -8 12 -4 7 5 8 3 4 -5 -5 -7 -14 -10 -21 -7 -14 5 -13 -23 1
-46 4 -7 3 -8 -4 -4 -7 4 -12 5 -12 2 0 -2 -3 -11 -6 -20 -3 -9 -1 -16 6 -16
6 0 8 5 4 12 -5 7 -3 8 5 3 9 -5 7 -13 -8 -29 -16 -17 -18 -25 -9 -34 9 -9 9
-12 -3 -13 -7 -1 -18 -1 -22 0 -5 1 -6 -3 -2 -9 4 -6 16 -8 28 -4 21 6 20 5
-3 -15 -14 -13 -20 -20 -15 -17 6 2 12 -4 12 -15 1 -10 -3 -19 -8 -19 -6 0 -7
-4 -4 -10 3 -5 1 -10 -5 -10 -8 0 -8 -6 0 -20 7 -14 7 -20 0 -20 -5 0 -10 -5
-10 -11 0 -5 6 -7 13 -3 9 6 9 5 0 -8 -7 -8 -12 -17 -10 -19 1 -2 -4 3 -12 11
-11 13 -12 12 -6 -7 4 -16 2 -23 -7 -23 -9 -1 -8 -4 3 -10 16 -9 15 -60 -1
-60 -4 0 -6 -13 -5 -30 1 -16 -2 -30 -7 -30 -5 0 -6 -5 -3 -10 4 -6 11 -7 17
-4 7 5 8 2 4 -5 -5 -7 -14 -10 -22 -7 -12 5 -12 2 -3 -16 10 -18 9 -20 -6 -14
-15 5 -16 4 -5 -9 7 -8 17 -12 24 -8 15 9 -16 -30 -32 -40 -10 -7 -10 -12 -1
-23 9 -11 8 -14 -2 -14 -11 0 -11 -2 1 -10 10 -6 11 -10 3 -10 -7 0 -13 -5
-13 -11 0 -5 4 -8 9 -5 13 8 7 -24 -5 -32 -14 -10 -25 -42 -15 -42 5 0 12 -8
16 -18 5 -14 4 -15 -6 -4 -21 20 -25 14 -22 -28 1 -26 -2 -40 -10 -40 -8 0 -8
-3 -2 -8 16 -12 16 -32 0 -38 -8 -4 -15 -10 -15 -15 0 -4 8 -5 17 -2 15 6 16
5 3 -9 -8 -9 -19 -14 -24 -11 -5 3 -7 -11 -4 -31 3 -31 1 -36 -17 -37 -19 0
-19 -1 3 -9 12 -5 22 -12 22 -15 0 -4 -4 -4 -8 -1 -16 10 -36 -14 -38 -46 -2
-47 -2 -48 -19 -48 -8 0 -15 -4 -15 -10 0 -5 6 -8 13 -6 6 1 9 1 4 -1 -4 -3
-5 -9 -2 -14 4 -5 -1 -6 -9 -3 -11 4 -14 -1 -12 -20 2 -14 -3 -27 -11 -30 -9
-4 -11 -1 -7 6 4 6 3 8 -4 5 -5 -4 -8 -17 -4 -29 3 -13 1 -19 -5 -15 -6 4 -14
-4 -17 -18 -4 -15 -11 -23 -17 -19 -7 4 -9 0 -5 -13 4 -13 0 -25 -11 -34 -16
-13 -17 -12 -5 3 9 11 10 18 2 23 -6 4 -9 1 -8 -7 2 -7 -3 -12 -10 -10 -10 2
-10 -2 -1 -19 8 -15 8 -19 0 -15 -6 4 -11 2 -11 -4 0 -6 -5 -8 -12 -4 -7 5 -9
2 -5 -9 7 -19 -18 -44 -28 -27 -3 5 -12 10 -18 10 -8 0 -8 -3 2 -9 17 -11 -3
-25 -25 -17 -11 4 -12 2 -5 -12 8 -14 5 -18 -10 -19 -12 -1 -17 3 -13 10 3 7
-6 -1 -20 -16 -14 -15 -26 -22 -26 -15 0 9 -3 9 -10 -2 -8 -12 -13 -13 -29 -3
-17 10 -18 9 -14 -10 4 -18 3 -19 -6 -7 -6 8 -11 11 -11 6 0 -5 -9 -1 -20 9
-11 10 -20 13 -20 7 0 -6 6 -13 13 -16 9 -5 9 -7 -1 -12 -6 -3 -10 -10 -6 -15
9 -15 -3 -10 -17 8 -12 14 -12 16 0 8 10 -5 12 -4 7 4 -4 6 -11 9 -15 7 -16
-10 -61 -14 -56 -5 4 5 10 7 15 4 5 -3 11 -1 15 4 6 10 -27 7 -45 -4 -6 -4 -7
1 -3 11 5 14 3 15 -16 4 -20 -10 -23 -9 -28 9 -3 11 -9 18 -14 15 -5 -3 -6 2
-3 10 3 9 2 16 -4 16 -6 0 -13 -6 -15 -12 -4 -8 -6 -7 -6 4 -1 9 5 19 12 21 6
3 1 6 -13 7 -14 1 -19 4 -13 7 10 3 9 8 -3 20 -8 9 -13 22 -10 29 3 8 1 14 -5
14 -6 0 -6 8 1 21 11 20 11 20 -17 4 -21 -13 -23 -13 -9 -2 18 16 13 43 -6 31
-7 -4 -8 -2 -4 5 4 6 11 9 16 6 4 -3 14 3 21 13 13 15 12 16 -3 4 -14 -11 -19
-10 -32 9 -14 21 -14 24 1 41 9 10 11 18 5 18 -6 0 -8 18 -5 51 3 37 1 54 -9
60 -10 7 -10 9 3 9 18 0 21 30 4 42 -6 5 -5 8 3 8 10 0 10 5 2 21 -9 15 -8 24
1 35 9 11 9 14 -2 14 -10 0 -11 2 -2 8 8 5 9 13 3 22 -12 19 -13 33 -2 26 5
-3 9 2 9 10 0 9 -6 13 -16 9 -13 -4 -13 -3 1 8 11 9 14 18 7 28 -14 22 -11 35
4 14 11 -14 16 -15 22 -5 5 8 4 11 -2 7 -6 -4 -13 5 -16 20 -5 26 -4 26 9 8 8
-10 14 -13 14 -7 0 7 -9 20 -19 29 -20 17 -19 33 2 33 7 0 6 -4 -3 -10 -17
-11 -9 -13 14 -4 15 6 15 8 -1 20 -11 8 -13 13 -6 14 9 0 10 7 3 26 -9 22 -8
25 5 20 8 -3 15 -3 15 0 0 2 -10 9 -22 14 -16 6 -18 9 -7 9 9 1 19 10 22 22 4
15 2 19 -9 15 -11 -4 -11 0 2 19 13 20 14 25 3 25 -11 0 -11 2 1 10 10 6 11
10 3 10 -7 0 -13 5 -13 11 0 5 4 8 9 5 5 -4 7 3 4 14 -4 16 -2 19 13 14 18 -5
18 -5 0 7 -18 11 -18 12 5 31 l24 19 -23 -11 c-13 -6 -26 -9 -30 -6 -3 3 0 6
7 6 7 0 9 4 6 10 -3 5 3 17 14 27 19 16 20 18 3 37 -11 12 -12 16 -3 11 11 -6
13 -4 8 8 -4 12 -1 17 10 17 14 0 14 2 -3 15 -19 14 -19 14 1 15 17 0 17 2 5
10 -8 5 -11 10 -6 10 5 0 3 6 -3 14 -10 11 -8 17 6 25 12 7 14 10 4 11 -9 0
-6 7 9 20 13 11 19 20 14 20 -6 0 -16 -6 -23 -12 -10 -11 -11 -10 -6 5 4 9 10
17 14 17 3 0 12 10 20 23 7 12 10 19 6 15 -4 -4 -13 -2 -20 5 -9 9 -9 14 2 26
8 8 13 25 10 38 -3 19 -1 23 12 18 13 -5 14 -4 4 6 -15 15 -17 33 -4 24 5 -3
13 -1 16 5 4 6 1 9 -6 8 -6 -2 -14 3 -17 11 -3 8 0 11 7 7 6 -4 11 -1 11 8 0
9 -6 16 -12 17 -10 0 -10 2 0 6 6 2 9 10 6 15 -4 7 -2 8 5 4 6 -4 9 -11 6 -16
-3 -5 -1 -11 4 -14 12 -8 8 37 -4 46 -6 5 -5 8 3 8 9 0 11 7 7 21 -5 16 -4 19
5 14 8 -5 11 -4 6 3 -3 5 0 13 6 16 9 3 8 5 -2 3 -8 -1 -15 3 -15 8 0 6 3 9 8
8 4 -2 7 2 7 8 0 5 4 7 10 4 6 -4 7 1 3 11 -5 13 -3 15 7 9 9 -6 11 -4 5 5 -6
10 -11 9 -21 -5 -12 -16 -13 -16 -11 4 1 11 8 21 16 21 8 0 11 3 8 7 -4 3 -1
13 6 21 10 13 9 15 -5 9 -12 -4 -15 -2 -11 9 3 8 12 13 19 10 18 -7 18 -1 -2
18 -10 10 -11 16 -4 16 7 0 9 7 6 16 -5 12 -1 14 17 10 12 -3 16 -3 9 0 -6 3
-9 11 -6 16 4 6 3 8 -3 5 -5 -3 -10 1 -10 9 0 9 6 13 16 9 8 -3 12 -3 8 1 -4
4 -1 14 6 22 8 10 8 13 1 9 -7 -4 -14 0 -18 8 -3 8 0 14 6 12 15 -3 17 25 3
36 -6 5 -1 7 11 4 16 -3 21 0 19 12 -1 9 1 23 6 32 5 10 3 21 -3 27 -9 9 -9
12 0 12 6 0 9 7 5 17 -4 11 -3 14 5 9 8 -5 10 -2 6 9 -4 9 1 21 12 29 15 11
16 17 6 29 -10 11 -10 17 -2 22 7 4 10 20 8 36 -3 21 -1 26 6 19 15 -15 36 50
22 69 -8 11 -8 13 2 7 11 -6 17 4 13 26 0 4 8 12 19 18 11 6 18 15 15 20 -3 5
3 14 12 20 15 9 14 10 -7 6 -14 -3 -19 -3 -12 0 6 3 9 11 6 16 -4 7 -2 8 4 4
7 -4 20 -2 29 4 16 11 16 11 1 6 -10 -3 -20 -1 -23 4 -3 5 4 12 15 15 17 5 19
9 9 21 -6 8 -9 17 -5 21 3 3 6 1 6 -5 0 -7 5 -12 11 -12 6 0 8 7 5 16 -3 8 -2
12 4 9 6 -3 13 1 16 9 3 9 11 13 17 9 6 -3 7 -1 3 6 -6 9 -12 9 -24 -1 -15
-11 -15 -11 -5 3 7 9 10 19 6 23 -4 4 0 4 10 0 10 -3 17 -1 17 5 0 6 4 10 9 9
5 -2 20 13 33 32 15 22 31 34 42 32 10 -2 15 1 12 7 -4 5 -2 12 4 16 5 3 10 2
10 -3 0 -17 33 -8 38 11 4 14 7 16 13 5 7 -10 9 -9 9 5 0 9 4 17 10 17 5 0 14
-8 20 -17 10 -16 11 -15 6 5 -4 23 -4 23 14 7 14 -12 20 -13 26 -4z m393 -154
c8 -10 7 -14 -2 -14 -8 0 -14 6 -14 14 0 7 1 13 2 13 2 0 8 -6 14 -13z m1161
-215 c0 -5 -6 -17 -14 -28 -10 -13 -14 -14 -13 -4 4 26 27 54 27 32z m-2023
-296 c0 -8 -6 -12 -15 -9 -11 5 -11 7 0 14 7 5 13 9 14 9 0 0 1 -6 1 -14z
m-1195 -23 c-6 -2 -9 -10 -6 -15 4 -7 2 -8 -5 -4 -13 9 -5 26 12 25 9 0 8 -2
-1 -6z m-18 -49 c3 -8 2 -12 -4 -9 -6 3 -10 10 -10 16 0 14 7 11 14 -7z m1891
-393 c3 -5 2 -12 -3 -15 -5 -3 -9 1 -9 9 0 17 3 19 12 6z m-22 -165 c4 -10 1
-13 -8 -9 -8 3 -12 9 -9 14 7 12 11 11 17 -5z m-793 -12 c0 -8 -19 -13 -24 -6
-3 5 1 9 9 9 8 0 15 -2 15 -3z m-1230 -49 c0 -2 -6 -5 -13 -8 -8 -3 -14 1 -14
8 0 7 6 11 14 8 7 -3 13 -6 13 -8z m3165 -133 c-3 -3 -11 0 -18 7 -9 10 -8 11
6 5 10 -3 15 -9 12 -12z m-60 -302 c-3 -5 -12 -10 -18 -10 -7 0 -6 4 3 10 19
12 23 12 15 0z m-1185 -94 c0 -3 -4 -8 -10 -11 -5 -3 -10 -1 -10 4 0 6 5 11
10 11 6 0 10 -2 10 -4z m1150 -126 c0 -5 -4 -10 -10 -10 -5 0 -10 5 -10 10 0
6 5 10 10 10 6 0 10 -4 10 -10z m-3075 -38 c-3 -3 -11 0 -18 7 -9 10 -8 11 6
5 10 -3 15 -9 12 -12z m3240 -501 c3 -5 2 -12 -3 -15 -5 -3 -9 1 -9 9 0 17 3
19 12 6z m-1700 -50 c3 -5 2 -12 -3 -15 -5 -3 -9 1 -9 9 0 17 3 19 12 6z
m1626 -168 c-12 -20 -14 -14 -5 12 4 9 9 14 11 11 3 -2 0 -13 -6 -23z m-1416
-83 c3 -6 -1 -7 -9 -4 -18 7 -21 14 -7 14 6 0 13 -4 16 -10z m1090 -118 c-3
-3 -11 0 -18 7 -9 10 -8 11 6 5 10 -3 15 -9 12 -12z m-80 -10 c-3 -3 -11 0
-18 7 -9 10 -8 11 6 5 10 -3 15 -9 12 -12z m-1665 -28 c0 -8 -19 -13 -24 -6
-3 5 1 9 9 9 8 0 15 -2 15 -3z m34 -2 c3 -5 -1 -9 -9 -9 -8 0 -15 4 -15 9 0 4
4 8 9 8 6 0 12 -4 15 -8z"/>
<path d="M2065 3609 c-3 -4 2 -6 10 -5 21 3 28 13 10 13 -9 0 -18 -4 -20 -8z"/>
<path d="M1739 3553 c-12 -16 -12 -17 2 -6 9 7 20 9 24 5 5 -4 5 -1 1 6 -9 16
-11 15 -27 -5z"/>
<path d="M2273 3525 c0 -8 4 -12 9 -9 4 3 8 9 8 15 0 5 -4 9 -8 9 -5 0 -9 -7
-9 -15z"/>
<path d="M2207 3049 c7 -7 15 -10 18 -7 3 3 -2 9 -12 12 -14 6 -15 5 -6 -5z"/>
<path d="M2184 2872 c3 -5 1 -12 -6 -14 -8 -3 -9 -6 -1 -11 6 -4 13 0 17 8 3
8 0 17 -6 21 -6 4 -8 3 -4 -4z"/>
<path d="M2140 2649 c0 -5 5 -7 10 -4 6 3 10 8 10 11 0 2 -4 4 -10 4 -5 0 -10
-5 -10 -11z"/>
<path d="M2116 2528 c3 -4 9 -8 15 -8 5 0 9 4 9 8 0 5 -7 9 -15 9 -8 0 -12 -4
-9 -9z"/>
<path d="M1325 2350 c-3 -5 -1 -10 4 -10 6 0 11 5 11 10 0 6 -2 10 -4 10 -3 0
-8 -4 -11 -10z"/>
<path d="M1995 1880 c4 -6 11 -8 16 -5 14 9 11 15 -7 15 -8 0 -12 -5 -9 -10z"/>
<path d="M1227 1274 c-7 -8 3 -34 13 -34 9 0 8 26 -1 35 -3 3 -8 2 -12 -1z"/>
<path d="M1703 1095 c0 -8 4 -12 9 -9 5 3 6 10 3 15 -9 13 -12 11 -12 -6z"/>
<path d="M2995 5100 c3 -5 8 -10 11 -10 2 0 4 5 4 10 0 6 -5 10 -11 10 -5 0
-7 -4 -4 -10z"/>
<path d="M4482 4640 c7 -10 14 -18 15 -16 6 6 -9 36 -18 36 -5 0 -4 -9 3 -20z"/>
<path d="M4993 4245 c0 -8 4 -12 9 -9 4 3 8 9 8 15 0 5 -4 9 -8 9 -5 0 -9 -7
-9 -15z"/>
<path d="M5036 4252 c-3 -4 4 -9 15 -9 23 -2 25 3 4 10 -8 4 -16 3 -19 -1z"/>
<path d="M1946 4012 c-3 -5 1 -9 9 -9 8 0 12 4 9 9 -3 4 -7 8 -9 8 -2 0 -6 -4
-9 -8z"/>
<path d="M5565 4011 c-9 -15 15 -25 28 -12 9 9 7 10 -7 5 -13 -5 -17 -4 -12 4
4 7 5 12 2 12 -3 0 -7 -4 -11 -9z"/>
<path d="M5615 4010 c-3 -5 -4 -14 -1 -18 3 -5 -15 -9 -39 -8 -24 0 -41 4 -38
9 3 5 -3 4 -14 -2 -14 -7 -23 -7 -30 0 -8 8 -13 7 -18 -2 -6 -8 -4 -10 5 -4 9
5 11 4 6 -4 -4 -6 -12 -8 -18 -5 -20 13 -63 9 -76 -6 -12 -13 -13 -13 -9 0 3
10 -2 16 -14 16 -12 0 -18 -5 -15 -13 4 -9 -2 -9 -18 3 -16 10 -26 12 -31 4
-3 -6 -12 -7 -18 -3 -7 3 -3 -4 8 -18 11 -13 13 -18 5 -11 -18 15 -44 16 -34
0 5 -7 3 -8 -7 -2 -23 14 -51 15 -67 2 -10 -8 -13 -8 -9 -2 4 7 -4 14 -20 17
-25 5 -26 4 -10 -8 16 -12 16 -13 -7 -11 -15 0 -26 4 -26 8 0 4 -7 5 -15 2 -8
-4 -12 -11 -8 -18 4 -8 2 -8 -7 1 -7 6 -19 9 -28 6 -11 -5 -13 -3 -7 8 8 12 6
12 -8 0 -14 -11 -23 -12 -43 -2 -15 6 -23 7 -19 1 3 -5 -1 -10 -10 -10 -9 0
-14 -4 -11 -9 7 -11 -21 -8 -31 4 -4 4 -2 5 4 1 9 -5 11 -2 6 9 -4 13 -8 14
-13 4 -5 -7 -6 -18 -3 -26 3 -7 0 -13 -7 -13 -6 0 -9 4 -5 9 3 5 1 12 -4 15
-5 4 -12 -2 -14 -11 -4 -17 -5 -17 -6 0 -1 24 -20 21 -31 -5 -9 -23 -9 -23
-11 2 -1 14 -3 18 -6 9 -3 -11 -12 -14 -32 -11 -16 2 -32 -1 -35 -7 -4 -6 -13
-11 -19 -11 -7 0 -6 4 3 10 10 6 6 9 -18 8 -17 -1 -29 -5 -26 -10 7 -12 -19
-6 -28 7 -4 5 -14 2 -26 -8 -10 -9 -23 -17 -28 -17 -5 0 -2 5 6 10 13 8 13 11
1 22 -10 10 -12 10 -7 1 4 -7 2 -14 -3 -14 -6 -1 -17 -2 -23 -3 -7 -1 -16 3
-20 9 -5 6 -8 5 -8 -4 0 -10 -3 -11 -14 -2 -11 9 -18 8 -30 -4 -9 -9 -14 -20
-12 -24 3 -4 -1 -8 -8 -8 -8 0 -12 9 -10 21 3 12 1 15 -2 8 -5 -10 -9 -10 -22
0 -14 10 -15 10 -4 -2 6 -8 12 -17 12 -20 0 -9 -32 -6 -48 4 -6 4 -12 3 -12
-1 0 -5 -12 -9 -27 -8 -21 0 -28 -5 -27 -17 1 -10 -3 -18 -8 -18 -6 0 -6 -6 1
-14 8 -9 8 -16 2 -20 -5 -4 -8 -15 -6 -26 2 -12 0 -18 -6 -15 -5 4 -7 10 -4
15 3 5 2 11 -3 14 -4 2 -8 -4 -9 -14 -1 -11 2 -22 8 -25 5 -3 1 -18 -9 -33
-13 -20 -14 -24 -2 -17 12 7 13 6 4 -6 -6 -8 -10 -22 -9 -31 2 -10 -1 -21 -6
-24 -6 -4 -6 -11 1 -19 8 -9 8 -15 0 -20 -6 -3 -8 -11 -5 -16 4 -5 -1 -9 -9
-9 -10 0 -13 -6 -10 -15 4 -8 11 -12 17 -8 6 3 7 1 3 -6 -4 -6 -11 -9 -16 -6
-4 3 -11 -2 -14 -11 -3 -8 -2 -12 4 -9 6 3 10 -1 10 -9 0 -8 -5 -18 -11 -22
-8 -5 -8 -8 0 -14 7 -3 9 -14 5 -23 -3 -9 -11 -14 -18 -10 -6 4 -4 -1 4 -11
20 -25 23 -51 4 -35 -7 6 -11 16 -7 23 4 7 1 7 -7 -1 -11 -10 -11 -15 1 -29 9
-12 10 -15 2 -10 -8 4 -13 2 -13 -8 0 -8 6 -17 13 -19 10 -4 10 -6 0 -6 -7 -1
-13 -10 -13 -22 0 -11 -4 -17 -10 -14 -7 4 -7 -3 0 -20 5 -14 6 -24 1 -21 -5
3 -8 -5 -8 -19 0 -14 4 -22 10 -18 6 4 7 1 3 -6 -5 -7 -15 -10 -23 -7 -9 4
-11 2 -6 -7 12 -19 12 -37 1 -37 -7 0 -7 -4 0 -13 7 -8 7 -18 2 -27 -5 -8 -6
-18 -3 -24 3 -5 1 -6 -5 -2 -7 4 -12 3 -12 -3 0 -5 5 -13 11 -17 8 -4 6 -10
-6 -17 -14 -7 -15 -11 -4 -18 12 -7 12 -10 0 -21 -8 -7 -11 -8 -8 -2 3 6 0 11
-8 11 -12 0 -12 -3 -3 -15 15 -17 20 -44 7 -36 -5 3 -6 11 -3 17 4 7 3 8 -1 4
-14 -12 -15 -37 -2 -37 7 0 5 -5 -3 -10 -13 -9 -13 -10 0 -10 9 0 11 -3 5 -8
-15 -11 -19 -46 -4 -36 8 4 10 3 5 -4 -4 -7 -14 -12 -23 -12 -9 0 -13 -3 -10
-7 4 -3 -1 -15 -10 -26 -10 -11 -13 -18 -7 -14 6 4 16 -6 23 -21 11 -26 11
-26 -5 -7 -12 14 -15 15 -11 4 3 -9 0 -22 -6 -29 -9 -10 -7 -11 13 -6 21 6 22
5 7 -4 -9 -6 -15 -15 -12 -20 3 -5 1 -11 -5 -15 -15 -9 -12 -28 3 -19 10 6 10
4 0 -7 -16 -16 -17 -33 -1 -23 7 5 8 3 4 -5 -5 -7 -14 -10 -22 -7 -8 3 -14 1
-14 -4 0 -6 3 -10 8 -10 4 0 8 -15 8 -32 1 -18 -1 -27 -3 -20 -10 27 -20 10
-16 -28 3 -35 2 -39 -14 -34 -16 6 -16 5 1 -8 18 -14 18 -15 -4 -21 -24 -6
-24 -6 -4 -28 10 -12 14 -19 8 -16 -7 4 -15 0 -18 -9 -8 -22 -8 -26 4 -19 6 3
7 -1 4 -9 -3 -9 -11 -13 -18 -9 -6 4 -5 -1 3 -10 9 -11 10 -17 2 -17 -6 0 -11
-5 -11 -11 0 -5 6 -7 13 -3 6 4 1 -5 -12 -19 -14 -15 -20 -27 -15 -27 5 0 2
-5 -6 -11 -13 -9 -13 -10 0 -6 8 2 14 10 12 16 -1 7 2 10 8 6 16 -10 12 -21
-12 -33 -13 -6 -17 -11 -10 -11 6 -1 12 -6 12 -12 0 -5 -6 -7 -12 -3 -10 5
-10 4 -1 -6 13 -14 6 -43 -9 -34 -6 4 -7 0 -1 -12 13 -28 10 -57 -7 -61 -11
-3 -12 -2 -3 4 9 6 6 12 -10 22 -17 10 -19 10 -10 0 10 -9 10 -16 1 -26 -6 -8
-7 -13 -2 -12 20 3 31 -2 31 -16 0 -11 -4 -12 -13 -4 -9 7 -12 6 -10 -8 2 -10
-2 -21 -8 -25 -8 -5 -7 -8 2 -8 6 0 12 -5 12 -11 0 -5 -4 -8 -8 -5 -9 5 -8
-36 1 -51 5 -7 0 -9 -15 -5 -22 5 -22 5 -5 -12 9 -10 17 -22 17 -27 0 -11 -17
-12 -23 -1 -2 4 -3 2 -1 -4 1 -6 -2 -16 -8 -22 -8 -8 -5 -9 9 -6 12 3 24 1 27
-5 5 -7 1 -8 -10 -4 -12 4 -15 3 -10 -5 5 -8 2 -10 -10 -5 -14 5 -15 3 -5 -15
10 -19 9 -22 -6 -22 -11 0 -14 -3 -7 -8 17 -11 24 -41 12 -48 -7 -4 -8 -3 -4
4 4 7 3 12 -3 12 -5 0 -9 -9 -8 -19 0 -11 4 -18 8 -15 10 6 5 -24 -6 -33 -4
-4 -5 -2 0 6 5 10 4 12 -4 7 -6 -4 -9 -12 -5 -17 10 -17 -5 -60 -19 -54 -7 4
-1 -2 13 -14 l25 -20 -25 5 c-14 3 -21 2 -15 -3 13 -10 14 -63 2 -63 -5 0 -3
-8 4 -17 10 -11 10 -14 2 -9 -7 4 -13 3 -13 -3 0 -5 6 -12 13 -14 9 -4 8 -6
-2 -6 -11 -1 -11 -4 0 -18 10 -11 10 -14 2 -9 -7 4 -13 3 -13 -1 0 -5 6 -15
13 -22 8 -10 8 -12 0 -7 -6 3 -14 2 -18 -4 -3 -5 -2 -10 2 -10 8 0 10 -55 3
-70 -1 -3 -2 -8 -1 -12 0 -4 -5 -5 -12 -2 -7 2 -13 -4 -14 -16 -1 -11 3 -20 8
-20 6 0 8 4 5 8 -3 5 2 9 11 9 12 0 11 -5 -7 -19 -12 -10 -16 -18 -9 -18 10 0
10 -3 1 -12 -17 -17 -15 -28 6 -29 14 0 14 -2 -3 -9 -14 -6 -15 -9 -5 -10 10
-1 9 -4 -5 -10 -11 -5 -15 -9 -9 -9 15 -1 25 -39 13 -47 -5 -3 -9 -12 -9 -20
0 -10 5 -12 13 -8 9 6 9 4 1 -7 -15 -19 -25 -49 -16 -48 21 3 24 -3 6 -17 -10
-8 -14 -13 -8 -10 7 3 15 -1 18 -10 8 -22 8 -26 -4 -19 -17 11 -11 -7 8 -21
12 -10 13 -13 3 -14 -11 0 -11 -3 -1 -15 7 -8 9 -15 4 -15 -5 0 -2 -5 6 -10
17 -10 20 -41 5 -52 -5 -4 0 -8 13 -8 12 0 22 -5 22 -11 0 -5 -5 -7 -11 -3 -8
5 -8 1 0 -13 6 -11 7 -24 3 -28 -4 -5 -2 -5 5 -1 6 3 14 2 18 -4 4 -6 11 -7
17 -4 6 4 8 2 4 -4 -3 -6 -2 -13 4 -17 5 -3 10 -13 10 -21 0 -9 -5 -12 -12 -8
-7 4 -8 3 -4 -5 6 -9 11 -9 21 -1 11 9 13 6 11 -15 -3 -21 -1 -23 11 -13 11 9
13 8 11 -3 -2 -8 3 -13 11 -11 11 2 12 0 3 -11 -15 -18 3 -36 41 -39 14 -1 23
-6 21 -10 -3 -4 -12 -5 -22 -2 -9 3 -2 -3 16 -12 17 -10 32 -24 32 -32 0 -9 7
-13 19 -9 22 5 56 -24 44 -38 -5 -5 1 -3 11 5 13 10 17 10 12 2 -5 -8 0 -12
14 -12 16 0 20 -4 16 -16 -3 -8 -2 -12 3 -9 5 3 12 1 16 -5 3 -5 12 -10 18
-10 7 0 6 4 -3 10 -12 7 -10 9 7 7 12 0 20 -4 17 -8 -2 -4 3 -10 12 -13 10 -4
13 -2 9 7 -4 6 0 4 9 -7 10 -13 24 -17 45 -14 16 2 28 1 25 -4 -8 -13 11 -9
25 5 10 10 11 9 6 -4 -4 -10 0 -16 9 -16 8 0 13 4 10 8 -2 4 0 11 6 14 6 4 9
3 8 -2 -2 -4 1 -8 7 -8 5 0 9 5 7 10 -2 6 2 5 9 -2 6 -6 19 -9 28 -6 12 4 13
3 3 -5 -11 -7 -8 -10 12 -14 17 -3 23 -1 19 6 -5 8 -3 8 8 0 17 -14 49 -14 49
-1 0 5 -7 7 -15 4 -8 -4 -16 -3 -19 1 -2 4 13 8 35 8 21 0 39 -3 39 -8 0 -4 5
-8 11 -8 5 0 8 4 5 8 -2 4 4 9 15 9 11 1 17 -2 14 -8 -4 -5 -1 -9 4 -9 6 0 11
5 11 11 0 5 5 7 10 4 6 -3 10 -1 10 4 0 6 5 11 11 11 5 0 7 -4 4 -10 -3 -5 1
-10 9 -10 9 0 16 5 16 11 0 8 6 7 17 -2 9 -8 14 -9 10 -3 -4 7 0 14 8 18 8 3
17 0 21 -6 5 -7 2 -8 -6 -3 -9 5 -11 4 -6 -4 5 -8 12 -9 19 -3 7 5 20 8 30 7
9 -2 15 0 12 5 -3 4 3 14 12 21 14 12 16 12 8 -1 -7 -12 -6 -13 7 -3 8 7 18
10 21 6 4 -3 7 -1 7 6 0 9 5 9 23 0 21 -12 21 -11 7 6 -14 17 -13 18 3 12 12
-4 17 -1 17 11 0 15 2 15 10 2 9 -13 10 -13 10 0 0 12 2 13 9 1 7 -11 10 -9
16 8 3 11 11 21 17 21 7 0 6 -5 -1 -14 -8 -10 -9 -16 -1 -21 9 -6 14 1 11 18
0 4 3 7 9 7 5 0 6 8 3 18 -5 14 -4 15 8 6 11 -8 22 -5 49 14 19 14 26 22 15
17 -47 -17 -47 -14 0 9 28 13 54 21 58 19 5 -3 4 4 -2 14 -9 17 -7 20 9 19 11
0 20 4 20 9 1 6 8 14 16 18 8 5 11 13 8 19 -5 8 -1 9 11 4 14 -5 15 -4 7 7 -7
8 -7 18 -2 27 9 13 10 13 11 0 0 -8 5 -3 11 13 6 16 14 24 21 20 7 -4 6 1 -2
10 -12 15 -12 17 4 11 12 -5 16 -4 12 3 -4 6 -3 13 2 15 4 1 12 14 16 27 6 18
4 22 -6 15 -12 -6 -12 -5 -1 8 21 26 4 50 -33 46 -25 -3 -31 0 -27 11 3 9 1
12 -6 7 -7 -4 -12 -2 -12 5 0 7 -6 4 -14 -6 -13 -18 -14 -17 -11 8 2 15 -1 25
-5 22 -5 -3 -11 -1 -15 5 -3 5 -1 10 6 10 7 0 9 3 6 6 -4 4 -13 1 -22 -6 -9
-7 -18 -10 -22 -6 -3 3 -1 6 5 6 20 0 13 18 -9 25 -17 6 -19 9 -8 16 10 6 11
9 2 9 -7 0 -13 9 -13 21 0 13 -4 18 -12 13 -10 -6 -10 -4 0 7 6 7 12 18 12 23
0 6 -5 4 -10 -4 -8 -13 -10 -12 -10 3 0 9 -5 17 -11 17 -8 0 -8 5 1 15 9 10 9
15 1 15 -6 0 -11 7 -11 16 0 9 5 12 13 8 9 -6 9 -5 0 7 -7 8 -12 24 -11 34 0
11 -3 29 -7 39 -7 15 -5 17 6 11 12 -7 12 -6 1 7 -10 12 -10 17 -1 20 9 3 9 9
0 26 -8 15 -8 22 -1 22 7 0 8 6 0 19 -7 14 -7 22 2 27 7 5 8 3 3 -6 -5 -8 -4
-11 3 -6 15 9 3 38 -12 29 -6 -3 3 9 19 28 17 18 21 26 9 16 -21 -17 -21 -17
-20 13 1 23 6 30 21 31 18 0 18 1 -2 9 -27 11 -31 23 -5 13 15 -6 15 -5 3 10
-12 15 -12 17 3 11 11 -4 16 -1 16 11 0 10 -4 13 -12 9 -10 -6 -10 -5 -2 7 7
8 11 25 10 39 -1 14 5 34 13 44 15 18 15 19 -3 12 -16 -5 -17 -4 -6 9 7 8 9
15 4 15 -5 0 2 10 16 21 14 11 20 18 13 15 -7 -4 -11 1 -10 14 1 11 5 20 9 20
13 0 9 35 -4 49 -11 11 -10 12 1 6 11 -6 13 -3 9 13 -4 15 -2 19 8 15 8 -3 14
0 14 6 0 6 -4 11 -8 11 -13 0 -8 42 7 65 l13 20 -7 -20 c-5 -16 -4 -18 6 -7
10 9 10 15 2 23 -13 13 -6 42 7 34 5 -3 5 9 0 26 -7 24 -6 30 4 26 7 -3 13 1
13 9 0 8 -6 13 -12 10 -6 -2 -12 2 -12 10 0 7 3 12 6 10 3 -2 15 6 26 17 11
11 14 17 8 13 -9 -5 -13 0 -13 13 0 12 6 21 13 21 8 0 8 3 -2 9 -13 8 -13 12
0 27 12 16 12 17 -1 9 -13 -8 -13 -7 -1 8 10 13 10 17 1 17 -10 0 -10 3 -1 14
9 11 10 20 1 38 -11 22 -10 22 4 4 13 -17 18 -18 29 -6 9 10 9 12 0 6 -15 -8
-15 0 -4 29 5 11 4 28 -1 39 -7 13 -7 16 1 12 6 -4 11 0 11 9 0 10 -5 13 -12
9 -10 -6 -10 -4 -2 7 6 8 10 22 9 31 -3 15 0 16 18 6 19 -9 20 -9 11 3 -6 8
-14 22 -17 31 -5 13 -2 15 11 11 15 -6 16 -5 2 12 -9 11 -10 16 -2 11 6 -4 12
-2 12 3 0 6 -6 11 -12 11 -9 0 -10 2 -2 8 7 4 14 25 18 47 12 83 19 110 29
123 8 10 7 16 -4 23 -11 7 -11 9 0 9 11 0 11 3 0 17 -12 14 -12 16 0 8 11 -6
13 -1 9 23 -2 17 0 28 4 25 13 -7 6 30 -7 40 -5 5 0 6 12 2 20 -6 21 -4 13 25
-5 17 -5 28 0 25 12 -8 19 18 9 37 -6 10 -5 19 2 24 8 4 7 9 -2 15 -11 7 -9 9
5 9 18 0 18 1 2 19 -17 19 -17 19 6 17 15 -2 25 2 25 10 0 7 -4 11 -9 8 -4 -3
-8 -1 -8 5 0 5 4 12 10 16 5 3 7 12 3 20 -3 9 1 15 8 15 11 0 11 3 -1 10 -13
9 -13 11 0 20 11 7 11 10 2 10 -13 0 -13 43 1 56 3 3 4 -6 1 -22 -3 -20 -2
-25 5 -15 5 8 7 25 5 38 -3 15 -1 22 5 19 5 -4 9 3 8 14 -1 11 -6 20 -12 20
-5 0 -2 6 7 14 13 10 15 15 6 24 -9 9 -9 15 0 24 7 7 8 17 2 29 -10 18 2 35
18 25 5 -3 6 8 4 25 -3 20 0 29 9 29 11 0 11 2 -1 10 -13 9 -13 10 0 10 13 0
13 1 0 10 -12 8 -12 10 -1 10 11 0 11 3 0 17 -12 14 -12 16 1 11 11 -4 15 2
17 20 0 16 -2 20 -7 12 -5 -8 -10 -9 -14 -2 -3 6 3 13 14 17 16 5 18 10 10 25
-15 28 -12 37 5 14 13 -17 14 -16 5 13 -6 22 -5 35 2 39 6 4 8 2 4 -4 -3 -6
-2 -13 3 -16 10 -7 9 20 -2 30 -4 4 -2 13 4 21 9 10 8 13 -1 13 -7 0 -3 9 10
20 13 11 19 20 14 20 -6 0 -16 -6 -23 -12 -11 -11 -11 -9 -2 9 8 16 8 23 -2
26 -9 4 -9 6 1 6 7 1 10 6 6 13 -4 7 -3 8 5 4 6 -4 9 -11 6 -16 -3 -5 -2 -11
2 -13 5 -3 9 11 10 31 2 28 0 33 -8 22 -9 -12 -10 -12 -5 3 3 10 6 21 6 23 0
3 6 2 13 -2 6 -4 9 -4 5 1 -4 4 -3 16 2 26 7 12 7 20 0 24 -5 3 -10 11 -10 16
0 6 4 8 8 5 4 -2 8 9 7 25 0 32 -1 34 -10 19z m-291 -46 c3 -8 2 -12 -4 -9 -6
3 -10 10 -10 16 0 14 7 11 14 -7z m-310 -32 c3 -5 -1 -9 -9 -9 -8 0 -15 4 -15
9 0 4 4 8 9 8 6 0 12 -4 15 -8z m-444 -41 c0 -4 -7 -8 -15 -8 -16 0 -20 9 -9
20 8 8 24 -1 24 -12z m-374 -1025 c2 -20 -1 -22 -11 -13 -9 8 -10 16 -3 25 13
16 13 16 14 -12z m-69 -342 c-3 -3 -12 -4 -19 -1 -8 3 -5 6 6 6 11 1 17 -2 13
-5z m-22 -1714 c3 -5 2 -10 -4 -10 -5 0 -13 5 -16 10 -3 6 -2 10 4 10 5 0 13
-4 16 -10z m803 -162 c-2 -6 -12 -12 -21 -14 -9 -1 -15 2 -11 7 3 5 10 7 15 4
5 -4 9 -1 9 4 0 6 3 11 6 11 3 0 4 -5 2 -12z"/>
<path d="M2187 3999 c7 -7 15 -10 18 -7 3 3 -2 9 -12 12 -14 6 -15 5 -6 -5z"/>
<path d="M5238 3978 c-7 -17 15 -19 29 -3 4 4 3 5 -4 2 -6 -4 -13 -2 -15 5 -3
8 -6 6 -10 -4z"/>
<path d="M4299 3624 c6 -12 7 -24 4 -28 -3 -3 -4 -6 -1 -6 3 0 12 8 19 18 7 9
9 14 5 10 -5 -4 -15 0 -23 10 -13 15 -13 15 -4 -4z"/>
<path d="M3500 3435 c-9 -10 -9 -15 -1 -15 6 0 11 5 11 11 0 5 5 7 12 3 7 -4
8 -3 4 4 -9 15 -11 15 -26 -3z"/>
<path d="M4220 3149 c0 -5 5 -7 10 -4 6 3 10 8 10 11 0 2 -4 4 -10 4 -5 0 -10
-5 -10 -11z"/>
<path d="M303 3068 c3 -9 1 -19 -6 -22 -9 -3 -9 -5 0 -5 18 -1 23 13 11 29 -8
12 -9 12 -5 -2z"/>
<path d="M5435 2909 c-4 -6 -5 -12 -2 -15 2 -3 7 2 10 11 7 17 1 20 -8 4z"/>
<path d="M100 2535 c-7 -9 -8 -15 -2 -15 5 0 12 7 16 15 3 8 4 15 2 15 -2 0
-9 -7 -16 -15z"/>
<path d="M5315 2361 c-3 -5 -2 -12 3 -15 5 -3 9 1 9 9 0 17 -3 19 -12 6z"/>
<path d="M5244 2035 c1 -8 6 -18 11 -22 4 -4 5 -3 2 4 -4 6 -2 13 5 15 8 3 6
6 -4 10 -10 4 -15 2 -14 -7z"/>
<path d="M5210 1829 c0 -5 5 -7 10 -4 6 3 10 8 10 11 0 2 -4 4 -10 4 -5 0 -10
-5 -10 -11z"/>
<path d="M3918 1503 c7 -3 16 -2 19 1 4 3 -2 6 -13 5 -11 0 -14 -3 -6 -6z"/>
<path d="M3920 1480 c-9 -6 -10 -10 -3 -10 6 0 15 5 18 10 8 12 4 12 -15 0z"/>
<path d="M75 1471 c-3 -5 -2 -12 3 -15 5 -3 9 1 9 9 0 17 -3 19 -12 6z"/>
<path d="M3149 1363 c-13 -16 -12 -17 4 -4 16 13 21 21 13 21 -2 0 -10 -8 -17
-17z"/>
<path d="M3276 1097 c3 -10 9 -15 12 -12 3 3 0 11 -7 18 -10 9 -11 8 -5 -6z"/>
<path d="M5380 1071 c0 -6 4 -13 10 -16 6 -3 7 1 4 9 -7 18 -14 21 -14 7z"/>
<path d="M3990 921 c0 -5 7 -12 16 -15 14 -5 15 -4 4 9 -14 17 -20 19 -20 6z"/>
<path d="M4196 711 c-3 -5 1 -11 9 -14 9 -4 12 -1 8 9 -6 16 -10 17 -17 5z"/>
<path d="M2985 679 c-4 -6 -5 -12 -2 -15 2 -3 7 2 10 11 7 17 1 20 -8 4z"/>
<path d="M2280 677 c0 -3 12 -12 26 -22 15 -9 23 -12 20 -6 -7 11 -46 35 -46
28z"/>
<path d="M2691 604 c0 -11 3 -14 6 -6 3 7 2 16 -1 19 -3 4 -6 -2 -5 -13z"/>
<path d="M1070 600 c-9 -6 -10 -10 -3 -10 6 0 15 5 18 10 8 12 4 12 -15 0z"/>
<path d="M4665 599 c-4 -6 -5 -12 -2 -15 2 -3 7 2 10 11 7 17 1 20 -8 4z"/>
<path d="M4526 592 c-3 -5 1 -9 9 -9 8 0 12 4 9 9 -3 4 -7 8 -9 8 -2 0 -6 -4
-9 -8z"/>
</g>
</svg>
